<?xml version="1.0" encoding="UTF-8"?>
<svg width="752pt" height="752pt" version="1.1" viewBox="0 0 752 752" xmlns="http://www.w3.org/2000/svg">
 <path d="m440.75 305.34c7.8477 0 15.379-3.1211 20.93-8.6719 5.5508-5.5508 8.668-13.078 8.668-20.93 0-7.8477-3.1172-15.379-8.668-20.93-5.5508-5.5508-13.082-8.668-20.93-8.668-7.8516 0-15.379 3.1172-20.93 8.668-5.5508 5.5508-8.6719 13.082-8.6719 20.93 0 7.8516 3.1211 15.379 8.6719 20.93 5.5508 5.5508 13.078 8.6719 20.93 8.6719zm0-44.398c3.9258 0 7.6875 1.5586 10.465 4.332 2.7734 2.7773 4.332 6.5391 4.332 10.465s-1.5586 7.6914-4.332 10.465c-2.7773 2.7773-6.5391 4.3359-10.465 4.3359s-7.6914-1.5586-10.465-4.3359c-2.7773-2.7734-4.3359-6.5391-4.3359-10.465s1.5586-7.6875 4.3359-10.465c2.7734-2.7734 6.5391-4.332 10.465-4.332zm103.6 159.7-0.003906-221.86c0-1.9609-0.77734-3.8438-2.168-5.2305-1.3867-1.3867-3.2695-2.168-5.2305-2.168h-362.59c-4.0859 0-7.3984 3.3125-7.3984 7.3984v309.31c0 1.9609 0.77734 3.8438 2.168 5.2344 1.3867 1.3867 3.2695 2.1641 5.2305 2.1641h268.55c9.3984 22.293 29.098 38.586 52.762 43.629 23.66 5.043 48.293-1.7969 65.965-18.32 17.672-16.523 26.148-40.645 22.703-64.59-3.4453-23.945-18.383-44.695-39.996-55.566zm-14.801-214.46v208.88c-6.0391-1.5898-12.258-2.4062-18.5-2.4336-1.1016 0-2.1758 0.11719-3.2617 0.17188l-61.543-68.031-0.003907-0.003906c-1.4023-1.5508-3.3984-2.4336-5.4883-2.4336-2.1055 0.007813-4.1094 0.91406-5.5078 2.4883l-53.586 60.262-83.285-97.156c-1.4023-1.6367-3.4492-2.5781-5.6016-2.5859-2.1523 0.003906-4.1953 0.94141-5.6016 2.5703l-105.41 122.05v-223.78zm-347.79 294.51v-48.098l111-128.53 83.176 97.078c1.3906 1.6211 3.4141 2.5625 5.5508 2.582 2.1406 0.039063 4.1914-0.86719 5.6016-2.4805l53.707-60.434 49.578 54.809v0.003906c-17.738 5.1094-32.918 16.684-42.535 32.438-9.6211 15.754-12.984 34.543-9.4258 52.656zm329.29 45.137c-12.426-0.019531-24.527-3.9414-34.602-11.215-10.074-7.2734-17.605-17.527-21.535-29.312l-0.050781-0.14062c-4.7617-14.465-3.7656-30.207 2.7773-43.953 6.5469-13.75 18.137-24.449 32.363-29.871 14.23-5.4258 30-5.1602 44.035 0.74609h0.089844c16.93 7.1328 29.586 21.723 34.262 39.492 4.6719 17.766 0.83203 36.695-10.398 51.238-11.227 14.539-28.57 23.043-46.941 23.016zm41.586-59.199v0.003906c0 1.9609-0.78125 3.8438-2.168 5.2305-1.3867 1.3867-3.2695 2.168-5.2305 2.168h-26.789v26.781-0.003906c0 4.0898-3.3125 7.4023-7.3984 7.4023s-7.4023-3.3125-7.4023-7.4023v-26.777h-26.785c-4.0859 0-7.3984-3.3125-7.3984-7.3984 0-4.0898 3.3125-7.4023 7.3984-7.4023h26.785v-26.777c0-4.0898 3.3164-7.4023 7.4023-7.4023s7.3984 3.3125 7.3984 7.4023v26.777h26.789c1.9609 0 3.8438 0.78125 5.2305 2.168 1.3867 1.3867 2.168 3.2695 2.168 5.2344z"/>
</svg>
